 <svg
              xmlns="http://www.w3.org/2000/svg"
              width="20"
              height="16"
              viewBox="0 0 20 16"
              fill="none"
            >
              <path
                xmlns="http://www.w3.org/2000/svg"
                d="M5.76 12.24C4.67 11.16 4 9.65999 4 7.99999C4 6.33999 4.67 4.83999 5.76 3.75999L7.18 5.17999C6.45 5.89999 6 6.89999 6 7.99999C6 9.09999 6.45 10.1 7.17 10.83L5.76 12.24ZM14.24 12.24C15.33 11.16 16 9.65999 16 7.99999C16 6.33999 15.33 4.83999 14.24 3.75999L12.82 5.17999C13.55 5.89999 14 6.89999 14 7.99999C14 9.09999 13.55 10.1 12.83 10.83L14.24 12.24ZM10 5.99999C8.9 5.99999 8 6.89999 8 7.99999C8 9.09999 8.9 9.99999 10 9.99999C11.1 9.99999 12 9.09999 12 7.99999C12 6.89999 11.1 5.99999 10 5.99999ZM18 7.99999C18 10.21 17.1 12.21 15.65 13.65L17.07 15.07C18.88 13.26 20 10.76 20 7.99999C20 5.23999 18.88 2.73999 17.07 0.929993L15.65 2.34999C16.396 3.0895 16.9878 3.96967 17.3912 4.93951C17.7945 5.90936 18.0015 6.9496 18 7.99999ZM4.35 2.34999L2.93 0.929993C1.12 2.73999 0 5.23999 0 7.99999C0 10.76 1.12 13.26 2.93 15.07L4.35 13.65C2.9 12.21 2 10.21 2 7.99999C2 5.78999 2.9 3.78999 4.35 2.34999Z"
                fill="black"
              />
            </svg>