 <svg
              xmlns="http://www.w3.org/2000/svg"
              width="18"
              height="14"
              viewBox="0 0 18 14"
              fill="none"
            >
              <path
                xmlns="http://www.w3.org/2000/svg"
                d="M3 11.5V8.16501L7.008 10.466C7.61417 10.8141 8.30098 10.9973 9 10.9973C9.69902 10.9973 10.3858 10.8141 10.992 10.466L15 8.16601V11.5C15.0001 11.5657 14.9873 11.6308 14.9622 11.6915C14.9372 11.7523 14.9004 11.8075 14.854 11.854L14.852 11.855L14.85 11.858L14.843 11.864L14.82 11.886L14.74 11.96C14.67 12.021 14.57 12.107 14.439 12.208C14.0798 12.4838 13.6981 12.729 13.298 12.941C11.9745 13.643 10.4981 14.0072 9 14.001C7.50188 14.0072 6.02546 13.643 4.702 12.941C4.30219 12.729 3.92085 12.4838 3.562 12.208C3.43004 12.1063 3.30259 11.9988 3.18 11.886L3.157 11.864C3.10799 11.8168 3.06887 11.7603 3.04192 11.6978C3.01497 11.6353 3.00072 11.5681 3 11.5V11.5Z"
                fill="black"
              />
              <path
                xmlns="http://www.w3.org/2000/svg"
                d="M17.749 5.434L10.494 9.599C10.0394 9.86009 9.52426 9.99747 9 9.99747C8.47574 9.99747 7.96063 9.86009 7.506 9.599L1 5.864V10.5C1 10.6326 0.947322 10.7598 0.853553 10.8536C0.759785 10.9473 0.632608 11 0.5 11C0.367392 11 0.240215 10.9473 0.146447 10.8536C0.0526785 10.7598 7.69301e-08 10.6326 7.69301e-08 10.5V5C-4.99223e-05 4.90986 0.024273 4.82137 0.0703945 4.74392C0.116516 4.66646 0.18272 4.60291 0.262 4.56L7.506 0.401004C7.96053 0.13963 8.47568 0.0020752 9 0.0020752C9.52432 0.0020752 10.0395 0.13963 10.494 0.401004L17.749 4.567C17.8252 4.61082 17.8886 4.67397 17.9326 4.75008C17.9767 4.82619 17.9998 4.91257 17.9998 5.0005C17.9998 5.08844 17.9767 5.17482 17.9326 5.25093C17.8886 5.32704 17.8252 5.39019 17.749 5.434V5.434Z"
                fill="black"
              />
            </svg>